<svg id="svg12" xmlns="http://www.w3.org/2000/svg" viewBox="0 0 2000 2000.1"><defs><style>.cls-1{fill:#35baeb;}.cls-2{fill:#fff;}.cls-3{fill:#222436;}.cls-3,.cls-4{stroke:#000;stroke-miterlimit:10;}.cls-4{fill:#00001f;}.cls-5{fill:#08ffff;}</style></defs><title>SimpleGUI-2</title><path id="rect22" class="cls-1" d="M537.2,0h925.7C1759.5,0,2000,240.5,2000,537.2v925.7c0,296.7-240.5,537.2-537.2,537.2H537.2C240.5,2000,0,1759.5,0,1462.8V537.2C0,240.5,240.5,0,537.2,0Z"/><path id="path10" class="cls-2" d="M892.8,892.7,599.3,599.1v353H869.8A144.59,144.59,0,0,1,892.8,892.7Zm-23,117.2H599.3A425.19,425.19,0,0,0,701.8,1259l191-193.3A125,125,0,0,1,869.8,1009.9Zm426.7-348.1a407.58,407.58,0,0,0-248.9-102.6V829.6a146,146,0,0,1,57.9,22.7Zm-146.4,401.1,191,191.1a418.94,418.94,0,0,0,100.4-245.6H1169.6a163.27,163.27,0,0,1-19.5,54.5ZM1169.6,952h270.5a425.19,425.19,0,0,0-102.5-249.1l-191,191.8a134.67,134.67,0,0,1,23,57.3Zm-427,347.1a407.71,407.71,0,0,0,248.9,102.5v-271a146,146,0,0,1-57.9-22.7Zm305-168.5v270.7a417.44,417.44,0,0,0,248.9-104l-189.7-189.8a162,162,0,0,1-59.2,23.1ZM599.3,511.5C671.8,584,899.1,813.6,937.5,851.2a174.32,174.32,0,0,1,53-21.7v-442L600,38.1C599.3,38.1,599.3,498.6,599.3,511.5Z"/><rect class="cls-3" x="163.7" y="1208.9" width="1720.1" height="477.1"/><rect class="cls-4" x="408.4" y="1319.5" width="836.3" height="237.8"/><rect class="cls-3" x="352.8" y="1189.1" width="210.8" height="38.6"/><rect class="cls-3" x="1093.5" y="1189.1" width="210.8" height="38.6"/><path id="path10-2" data-name="path10" class="cls-5" d="M814,1454.1l-36.9-36.9v44.4h34A18.64,18.64,0,0,1,814,1454.1Zm-2.9,14.7h-34a53.33,53.33,0,0,0,12.9,31.3l24-24.3A15.59,15.59,0,0,1,811.1,1468.8Zm53.7-43.7a51.25,51.25,0,0,0-31.3-12.9v34a17.8,17.8,0,0,1,7.3,2.9Zm-18.4,50.4,24,24a52.48,52.48,0,0,0,12.6-30.9H848.8a20.22,20.22,0,0,1-2.4,6.9Zm2.4-13.9h34a53.33,53.33,0,0,0-12.9-31.3l-24,24.1a16.86,16.86,0,0,1,2.9,7.2Zm-53.7,43.6a51.25,51.25,0,0,0,31.3,12.9V1484a17.8,17.8,0,0,1-7.3-2.9Zm38.4-21.2v34a52.68,52.68,0,0,0,31.3-13.1L841,1481a18,18,0,0,1-7.5,3Zm-56.4-77.8c9.1,9.1,37.7,38,42.5,42.7a20.52,20.52,0,0,1,6.7-2.7v-55.6l-49.1-43.9C777.1,1346.7,777.1,1404.6,777.1,1406.2Z"/></svg>